<svg width="1056" height="911" viewBox="0 0 1056 911" fill="none" xmlns="http://www.w3.org/2000/svg">
<rect width="1056" height="911" fill="white"/>
<path d="M817.844 722.003H808.598L867.545 592.937H879.295L938.242 722.003H928.996L880.451 617.209L873.516 601.413H872.746L866.196 617.209L817.844 722.003ZM912.622 680.972H833.641V673.074H912.622V680.972Z" fill="#013624"/>
<path d="M704.655 722.003H695.986V592.937H756.474C764.95 592.937 772.463 594.414 779.013 597.367C785.691 600.193 790.892 604.366 794.616 609.889C798.341 615.411 800.203 622.025 800.203 629.73C800.203 637.179 798.405 643.6 794.809 648.994C791.342 654.259 786.526 658.369 780.361 661.323C774.325 664.148 767.262 665.625 759.171 665.753V666.524C762.896 667.423 766.042 669.157 768.61 671.725C771.307 674.294 773.747 677.376 775.931 680.972L801.937 722.003H792.305L767.455 683.283C765.271 679.559 762.831 676.541 760.134 674.229C757.437 671.918 754.098 670.184 750.117 669.028C746.265 667.872 741.32 667.295 735.284 667.295H704.655V722.003ZM704.655 600.835V659.782H756.474C767.647 659.782 776.252 657.406 782.288 652.654C788.324 647.902 791.342 640.454 791.342 630.308C791.342 620.291 788.324 612.907 782.288 608.155C776.252 603.275 767.647 600.835 756.474 600.835H704.655Z" fill="#013624"/>
<path d="M611.946 723.93C599.746 723.93 588.83 721.233 579.198 715.839C569.566 710.317 561.989 702.611 556.467 692.723C550.945 682.705 548.184 670.955 548.184 657.47C548.184 643.985 550.945 632.299 556.467 622.41C561.989 612.393 569.566 604.688 579.198 599.294C588.83 593.771 599.746 591.01 611.946 591.01C624.404 591.01 635.384 593.771 644.887 599.294C654.391 604.688 661.904 612.393 667.426 622.41C672.948 632.299 675.709 643.985 675.709 657.47C675.709 670.955 672.948 682.705 667.426 692.723C661.904 702.611 654.391 710.317 644.887 715.839C635.384 721.233 624.404 723.93 611.946 723.93ZM611.946 715.454C623.376 715.454 633.136 713.206 641.227 708.711C649.446 704.217 655.739 697.667 660.106 689.062C664.601 680.33 666.848 669.799 666.848 657.47C666.848 645.013 664.601 634.482 660.106 625.878C655.739 617.273 649.446 610.723 641.227 606.229C633.136 601.734 623.376 599.486 611.946 599.486C600.645 599.486 590.885 601.734 582.666 606.229C574.446 610.723 568.089 617.273 563.595 625.878C559.228 634.482 557.045 645.013 557.045 657.47C557.045 669.799 559.228 680.33 563.595 689.062C568.089 697.667 574.446 704.217 582.666 708.711C590.885 713.206 600.645 715.454 611.946 715.454Z" fill="#013624"/>
<path d="M438.462 722.003H429.793V592.937H490.281C498.757 592.937 506.27 594.414 512.819 597.367C519.498 600.193 524.699 604.366 528.423 609.889C532.147 615.411 534.01 622.025 534.01 629.73C534.01 637.179 532.212 643.6 528.616 648.994C525.148 654.259 520.332 658.369 514.168 661.323C508.132 664.148 501.069 665.625 492.978 665.753V666.524C496.702 667.423 499.849 669.157 502.417 671.725C505.114 674.294 507.554 677.376 509.737 680.972L535.743 722.003H526.111L501.261 683.283C499.078 679.559 496.638 676.541 493.941 674.229C491.244 671.918 487.905 670.184 483.924 669.028C480.071 667.872 475.127 667.295 469.091 667.295H438.462V722.003ZM438.462 600.835V659.782H490.281C501.454 659.782 510.058 657.406 516.094 652.654C522.13 647.902 525.148 640.454 525.148 630.308C525.148 620.291 522.13 612.907 516.094 608.155C510.058 603.275 501.454 600.835 490.281 600.835H438.462Z" fill="#013624"/>
<path d="M348.697 723.93C337.524 723.93 327.699 721.811 319.223 717.573C310.747 713.335 304.133 707.17 299.381 699.08C294.63 690.86 292.254 680.779 292.254 668.836V592.937H300.923V668.643C300.923 679.431 302.721 688.292 306.316 695.227C309.912 702.033 315.242 707.106 322.305 710.445C329.497 713.784 338.294 715.454 348.697 715.454C359.227 715.454 368.024 713.784 375.088 710.445C382.151 707.106 387.481 702.033 391.077 695.227C394.801 688.292 396.663 679.431 396.663 668.643V592.937H405.139V668.836C405.139 680.779 402.763 690.86 398.012 699.08C393.26 707.17 386.646 713.335 378.17 717.573C369.822 721.811 359.998 723.93 348.697 723.93Z" fill="#013624"/>
<path d="M158.288 722.003H149.041L207.988 592.937H219.739L278.686 722.003H269.439L220.895 617.209L213.96 601.413H213.189L206.639 617.209L158.288 722.003ZM253.065 680.972H174.084V673.074H253.065V680.972Z" fill="#013624"/>
<path fill-rule="evenodd" clip-rule="evenodd" d="M612.133 196.728C617.025 168.061 639.018 153.795 661.084 164.975C690.884 180.075 701.505 212.421 693.786 254.968C688.343 284.967 665.274 297.896 643.169 305.265C621.064 312.633 580.457 309.488 538.938 348.084C538.938 348.084 527.914 358.433 547.264 364.593C572.067 372.487 595.259 385.651 614.296 402.643C617.993 405.944 617.993 405.944 615.075 400.784C612.006 395.356 583.857 335.386 583.857 335.386C589.339 330.97 605.386 326.961 610.506 327.957C616.464 339.919 648.876 407.824 666.825 446.286C693.591 503.639 702.326 515.819 720.3 520.85V528.378H630.599V521.985C649.611 515.233 659.19 500.76 643.439 469.741C616.107 415.913 583.304 385.318 536.406 369.915C522.83 365.456 526.02 362.944 508.673 391.751C437.631 509.723 371.131 554.141 329.515 511.42C271.213 451.568 397.086 340.425 506.121 355.482C512.36 356.343 512.36 356.343 515.961 350.184C533.472 320.23 554.285 305.254 602.153 288.167C643.713 273.33 661.239 262.282 668.903 246.086C685.358 211.309 663.693 173.424 641.425 198.037C635.775 204.282 630.445 207.462 625.566 207.496C623.467 207.511 621.847 206.024 621.847 206.024C618.1 209.895 609.483 218.775 606.948 218.775C605.844 218.775 606.047 217.606 607.97 212.912C609.292 209.687 611.164 202.404 612.133 196.728ZM505.813 362.895C499.51 361.635 472.722 362.461 462.819 364.221C400.658 375.272 352.951 419.549 352.647 466.471C352.306 519.257 414.279 512.028 457.324 454.261C478.563 425.758 511.337 364.002 505.813 362.895Z" fill="#013624"/>
<path d="M522.577 206.024L541.402 180.832C541.402 180.832 557.133 214.053 564.377 230.025C571.62 245.997 585.959 272.373 589.339 279.492C581.479 280.395 567.933 285.491 562.18 290.012C562.18 290.012 547.307 259.276 538.938 241.695C523.722 209.732 522.577 206.024 522.577 206.024Z" fill="#013624"/>
<path d="M594.178 137.651C594.178 131.636 602.499 128.475 607.656 132.53C609.35 133.862 610.128 135.364 610.128 137.304C610.128 139.612 611.947 142.059 619.969 150.539C632.197 163.464 631.951 163.732 617.441 153.3C607.409 146.087 605.39 144.99 602.833 145.366C599.121 145.91 594.178 141.505 594.178 137.651Z" fill="#013624"/>
<path d="M643.437 114.636C645.763 114.636 647.52 115.349 649.109 116.939C652.794 120.623 650.804 129.647 646.306 129.647C645.637 129.647 644.845 131.155 644.547 132.995C643.776 137.742 637.955 157.29 637.614 156.274C637.458 155.809 637.91 149.589 638.616 142.453C639.899 129.479 639.899 129.478 637.681 127.26C632.909 122.488 636.489 114.636 643.437 114.636Z" fill="#013624"/>
<path d="M620.918 116.513C623.456 116.513 625.059 117.224 627.09 119.254C630.374 122.54 630.761 127.274 628.028 130.749C626.237 133.026 626.243 133.116 628.938 143.307C632.572 157.045 632.416 157.148 626.56 144.893C622.451 136.29 621.147 134.338 619.505 134.338C616.16 134.338 612.005 129.4 612.005 125.425C612.005 120.659 616.151 116.513 620.918 116.513Z" fill="#013624"/>
</svg>
